<svg id="Layer_2" data-name="Layer 2" xmlns="http://www.w3.org/2000/svg" viewBox="0 0 1000 1000"><defs><style>.cls-1{fill:#271651;}.cls-2{fill:#3e71b8;}.cls-3{fill:#91c850;}.cls-4{fill:#76cdd6;}</style></defs><g id="Layer_3" data-name="Layer 3"><rect class="cls-1" y="-2.64" width="1000" height="1014.28"/></g><path class="cls-2" d="M500,795c-119.62,0-222.62-71.19-268.92-173.51h-62c49.5,134.76,179,230.89,330.89,230.89,160.23,0,295.48-106.94,338.27-253.33l-49.33-39.18C761.27,694.1,642.42,795,500,795Z"/><path class="cls-2" d="M757.21,534.9l-.09,13.31h-21.6V517.83L575.08,391.57,308.2,599.41h66.24L573.64,441,776.87,602.1l2.21,1.75q3.87-17.24,7.73-34.46l0-.14,2.1-9.38Z"/><path class="cls-3" d="M500,147.61c-194.62,0-352.39,157.78-352.39,352.4a352.32,352.32,0,0,0,14.22,99.41h60.32A294.37,294.37,0,0,1,205,500c0-162.94,132.09-295,295-295S795,337.07,795,500a296.7,296.7,0,0,1-2.13,35.6l51.22,40.66A353.5,353.5,0,0,0,852.39,500C852.39,305.39,694.62,147.61,500,147.61Z"/><path class="cls-3" d="M222.15,599.42,429.64,442.94l25.92,19.2,33.6-24.48-60-46.08-218,168.74c1,5,2.28,10.29,3.72,15.7C217.1,584.42,219.58,592.22,222.15,599.42Z"/><path class="cls-4" d="M349.72,337.22c0,1.22,18.8-1.85,28.32,8,8.89,9.23,5.81,25.76,7.56,25.8s-.5-17.34,9.36-26.52c9-8.36,23.93-6.22,23.88-7.56s-15.73,1.81-24.72-6.48c-8.67-8-6.9-22.84-8.8-22.78s.65,13.36-6.59,21.45C369.58,339.42,349.73,336,349.72,337.22Z"/><path class="cls-4" d="M469.13,289.93c0,1.23,18.8-1.84,28.32,8,8.89,9.24,5.81,25.77,7.56,25.8s-.5-17.33,9.36-26.52c9-8.35,23.93-6.21,23.88-7.56s-15.73,1.82-24.72-6.48c-8.67-8-6.9-22.83-8.8-22.77s.65,13.36-6.59,21.45C489,292.14,469.14,288.67,469.13,289.93Z"/><path class="cls-4" d="M582.89,337.22c0,1.22,18.8-1.85,28.32,8,8.89,9.23,5.81,25.76,7.56,25.8s-.5-17.34,9.36-26.52c9-8.36,23.93-6.22,23.88-7.56s-15.73,1.81-24.72-6.48c-8.67-8-6.9-22.84-8.8-22.78s.65,13.36-6.59,21.45C602.75,339.42,582.9,336,582.89,337.22Z"/><rect class="cls-4" x="529.74" y="544.11" width="37.66" height="37.66"/><rect class="cls-4" x="578.7" y="544.11" width="37.66" height="37.66"/><rect class="cls-4" x="578.7" y="590.19" width="37.66" height="37.66"/><rect class="cls-4" x="529.74" y="590.19" width="37.66" height="37.66"/><path class="cls-2" d="M694.3,485.93l.18-36,41.4-.36,17.28,50.76-17.64-18.72v39.24Z"/></svg>
